# xmcd
#
# Track frame offsets:
#	150
#	13681
#	30421
#	44563
#	55789
#	66193
#	77810
#	97077
#	110332
#	134500
#	151028
#	163430
#
# Disc length: 2455 seconds
#
# Revision: 0
# Processed by: cddbd v1.5.2PL0 Copyright (c) Steve Scherf et al.
# Submitted via: audiograbber 1.83.01
#
DISCID=9d09950c
DTITLE=Garth Brooks - The Ultimate Collection - Old School
DYEAR=2016
DGENRE=Country
TTITLE0=Much Too Young (To Feel This Damn Old)
TTITLE1=If Tomorrow Never Comes
TTITLE2=1982
TTITLE3=Unwound
TTITLE4=Longneck Bottle
TTITLE5=Two of a Kind, Workin' on a Full House
TTITLE6=Good Ol' Boys Like Me
TTITLE7=Amos Moses
TTITLE8=That Ol' Wind
TTITLE9=Alabama Clay
TTITLE10=White Lightning
TTITLE11=Don't Close Your Eyes
EXTD=
EXTT0=
EXTT1=
EXTT2=
EXTT3=
EXTT4=
EXTT5=
EXTT6=
EXTT7=
EXTT8=
EXTT9=
EXTT10=
EXTT11=
PLAYORDER=
